<svg xmlns="http://www.w3.org/2000/svg" xmlns:xlink="http://www.w3.org/1999/xlink" version="1.1" x="0px" y="0px" viewBox="0 0 110 137.5" enable-background="new 0 0 110 110" xml:space="preserve"><path d="M54.665,53.709l-4.832,4.832c-0.391,0.391-0.391,1.023,0,1.414c0.195,0.195,0.451,0.293,0.707,0.293  s0.512-0.098,0.707-0.293l4.831-4.831h10.638l14.521-14.526c0.007-0.007,0.013-0.013,0.02-0.02l0.631-0.632l0.026-0.659l0.676-0.039  l4.789-4.79c0.215-0.215,0.415-0.439,0.602-0.671c0.234-0.136,0.399-0.357,0.463-0.629c2.204-3.307,1.851-7.828-1.064-10.749v-0.001  l0,0c0,0-0.001,0-0.001-0.001c-1.61-1.606-3.75-2.492-6.024-2.492s-4.414,0.886-6.025,2.493l-8.086,8.091  c0,0.001-0.001,0.001-0.001,0.002l-4.488,4.49l0.029,0.539l-0.521-0.056l-2.391,2.392l-0.001,0.001l-5.204,5.206V53.709z   M65.888,53.124h-7.81l2.947-2.947l7.786,0.022L65.888,53.124z M74.227,34.146l-5.248,5.248l-0.026-7.777l5.248-5.252L74.227,34.146  z M68.696,42.505C68.696,42.505,68.697,42.505,68.696,42.505l1.659-1.659l7.778,0.027l-7.329,7.332l-7.785-0.022L68.696,42.505z   M81.714,37.295l-1.727,0.1l-0.06,1.484l-7.579-0.026l3.581-3.581c0.004-0.004,0.008-0.008,0.012-0.013l1.36-1.359l7.779,0.027  L81.714,37.295z M86.851,31.934l-7.556-0.027l7.315-7.315C88.195,26.761,88.278,29.69,86.851,31.934z M81.353,21.915  c1.402,0,2.734,0.447,3.845,1.261l-8.978,8.978l-0.026-7.783l0.547-0.547C77.974,22.593,79.611,21.915,81.353,21.915z   M62.999,37.564l1.905,0.203l-0.107-1.993l2.162-2.163l0.026,7.776l-5.381,5.381l-0.024-7.784L62.999,37.564z M59.587,40.979  l0.024,7.784l-2.946,2.946v-7.808L59.587,40.979z M20.124,43.806c0-0.552,0.447-1,1-1h30.055c0.553,0,1,0.448,1,1  c0,0.553-0.447,1-1,1H21.124C20.571,44.806,20.124,44.358,20.124,43.806z M20.124,48.271c0-0.552,0.447-1,1-1h30.055  c0.553,0,1,0.448,1,1c0,0.553-0.447,1-1,1H21.124C20.571,49.271,20.124,48.823,20.124,48.271z M20.124,52.741c0-0.552,0.447-1,1-1  h30.055c0.553,0,1,0.448,1,1c0,0.553-0.447,1-1,1H21.124C20.571,53.741,20.124,53.294,20.124,52.741z M20.124,57.207  c0-0.553,0.447-1,1-1h24.232c0.553,0,1,0.447,1,1c0,0.552-0.447,1-1,1H21.124C20.571,58.207,20.124,57.759,20.124,57.207z   M100.36,12.143H9.639c-3.109,0-5.639,2.53-5.639,5.64v56.995c0,3.107,2.529,5.637,5.639,5.637h34.812v15.443h-6.277v2h6.277h19.975  h6.275v-2h-6.275V80.414h35.935c3.109,0,5.64-2.529,5.64-5.637V17.782C106,14.673,103.47,12.143,100.36,12.143z M9.639,14.143  h90.722c2.007,0,3.64,1.633,3.64,3.64v48.122H6V17.782C6,15.775,7.632,14.143,9.639,14.143z M62.426,95.857H46.451V80.414h15.975  V95.857z M100.36,78.414H64.426H44.451H9.639C7.632,78.414,6,76.783,6,74.777v-6.873h98v6.873  C104,76.783,102.367,78.414,100.36,78.414z"/><text x="0" y="125" fill="#000000" font-size="5px" font-weight="bold" font-family="'Helvetica Neue', Helvetica, Arial-Unicode, Arial, Sans-serif">Created by dilakuscan</text><text x="0" y="130" fill="#000000" font-size="5px" font-weight="bold" font-family="'Helvetica Neue', Helvetica, Arial-Unicode, Arial, Sans-serif">from the Noun Project</text></svg>