<svg xmlns="http://www.w3.org/2000/svg" xmlns:xlink="http://www.w3.org/1999/xlink" version="1.1" x="0px" y="0px" viewBox="0 0 52 65" style="enable-background:new 0 0 52 52;" xml:space="preserve"><style type="text/css">
	.st0{fill:none;stroke:#000000;stroke-miterlimit:10;}
	.st1{fill:none;stroke:#000000;stroke-linecap:round;stroke-linejoin:round;stroke-miterlimit:10;}
</style><g><g><path d="M29,31.7121582c-0.1103516,0-0.2197266-0.0366211-0.3085938-0.1064453    C28.5703125,31.5109863,28.5,31.3659668,28.5,31.2121582v-2.449707c0-0.2758789-0.2246094-0.5-0.5-0.5h-4    c-0.2753906,0-0.5,0.2241211-0.5,0.5v2.449707c0,0.1538086-0.0703125,0.2988281-0.1914063,0.3935547    c-0.1210938,0.0957031-0.2763672,0.1293945-0.4287109,0.0917969L4.6601563,27.2077637L2.8105469,26.454834    C2.6230469,26.3781738,2.5,26.1950684,2.5,25.9924316V15.8820801c0-1.378418,1.1210938-2.5,2.5-2.5h42    c1.3789063,0,2.5,1.121582,2.5,2.5v10.1103516c0,0.2026367-0.1220703,0.3857422-0.3105469,0.4624023l-1.7792969,0.7299805    l-18.2900391,4.5126953C29.0800781,31.7072754,29.0400391,31.7121582,29,31.7121582z M3.5,25.6569824l1.4697266,0.6030273    L22.5,30.5739746v-1.8115234c0-0.8271484,0.6728516-1.5,1.5-1.5h4c0.8271484,0,1.5,0.6728516,1.5,1.5v1.8115234    l17.6015625-4.3369141L48.5,25.657959v-9.7758789c0-0.8271484-0.6728516-1.5-1.5-1.5H5c-0.8271484,0-1.5,0.6728516-1.5,1.5    V25.6569824z M49,25.9924316h0.0097656H49z"/></g><g><path d="M45.2207031,45.5622559H6.7802734c-1.3789063,0-2.5-1.121582-2.5-2.5V26.7224121    c0-0.1538086,0.0703125-0.2988281,0.1914063-0.3935547S4.75,26.2019043,4.9003906,26.2370605l18.2197266,4.4897461    C23.3427734,30.7814941,23.5,30.9821777,23.5,31.2121582v3.550293c0,0.2758789,0.2246094,0.5,0.5,0.5h4    c0.2753906,0,0.5-0.2241211,0.5-0.5v-3.550293c0-0.2299805,0.1572266-0.4306641,0.3798828-0.4853516l18.2216797-4.4897461    c0.1455078-0.0366211,0.3066406-0.003418,0.4277344,0.0917969c0.1210938,0.0947266,0.1914063,0.2397461,0.1914063,0.3935547    v16.3398438C47.7207031,44.4406738,46.5996094,45.5622559,45.2207031,45.5622559z M5.2802734,27.3605957v15.7016602    c0,0.8271484,0.6728516,1.5,1.5,1.5h38.4404297c0.8271484,0,1.5-0.6728516,1.5-1.5V27.3605957L29.5,31.6037598v3.1586914    c0,0.8271484-0.6728516,1.5-1.5,1.5h-4c-0.8271484,0-1.5-0.6728516-1.5-1.5v-3.1586914L5.2802734,27.3605957z"/></g><g><path d="M34.3554688,14.380127H17.6445313c-0.2763672,0-0.5-0.2236328-0.5-0.5V8.9377441c0-1.378418,1.1210938-2.5,2.5-2.5    h12.7109375c1.3789063,0,2.5,1.121582,2.5,2.5v4.9423828C34.8554688,14.1564941,34.6318359,14.380127,34.3554688,14.380127z     M18.1445313,13.380127h15.7109375V8.9377441c0-0.8271484-0.6728516-1.5-1.5-1.5H19.6445313c-0.8271484,0-1.5,0.6728516-1.5,1.5    V13.380127z"/></g><g><path d="M28,36.2624512h-4c-0.8271484,0-1.5-0.6728516-1.5-1.5v-6c0-0.8271484,0.6728516-1.5,1.5-1.5h4    c0.8271484,0,1.5,0.6728516,1.5,1.5v6C29.5,35.5895996,28.8271484,36.2624512,28,36.2624512z M24,28.2624512    c-0.2753906,0-0.5,0.2241211-0.5,0.5v6c0,0.2758789,0.2246094,0.5,0.5,0.5h4c0.2753906,0,0.5-0.2241211,0.5-0.5v-6    c0-0.2758789-0.2246094-0.5-0.5-0.5H24z"/></g></g></svg>