<svg xmlns="http://www.w3.org/2000/svg" xmlns:xlink="http://www.w3.org/1999/xlink" version="1.1" x="0px" y="0px" viewBox="0 0 100 125" enable-background="new 0 0 100 100" xml:space="preserve"><path d="M92.034,26.721H76.178c0.416-0.646,0.665-1.412,0.665-2.237c0-2.284-1.858-4.143-4.142-4.143h-5.993v-4.774  c0-2.285-1.857-4.143-4.142-4.143H37.435c-2.286,0-4.145,1.858-4.145,4.143v4.774h-5.988c-2.285,0-4.144,1.859-4.144,4.143  c0,0.825,0.248,1.59,0.666,2.237H7.965c-3.014,0-5.465,2.452-5.465,5.465v17.28c0,1.53,0.634,2.914,1.65,3.906v29.076  c0,2.931,2.385,5.315,5.315,5.315h29.822c0.815,0.511,1.776,0.812,2.808,0.812h15.81c1.031,0,1.992-0.301,2.809-0.812h29.821  c2.93,0,5.314-2.385,5.314-5.315V53.373c1.017-0.992,1.65-2.376,1.65-3.906v-17.28C97.5,29.173,95.048,26.721,92.034,26.721z   M27.302,22.864h8.511v-7.297c0-0.895,0.727-1.621,1.622-1.621h25.132c0.894,0,1.62,0.726,1.62,1.621v7.297h8.515  c0.894,0,1.62,0.726,1.62,1.621c0,0.896-0.727,1.622-1.62,1.622H62.566c-0.895,0-1.621-0.727-1.621-1.622v-7.296H39.057v7.296  c0,0.896-0.728,1.622-1.622,1.622H27.302c-0.896,0-1.622-0.727-1.622-1.622C25.68,23.589,26.405,22.864,27.302,22.864z   M41.579,24.484V19.71h16.845v4.774c0,0.825,0.249,1.59,0.666,2.237H40.913C41.33,26.075,41.579,25.31,41.579,24.484z M5.022,32.187  c0-1.623,1.319-2.943,2.942-2.943h84.069c1.623,0,2.943,1.321,2.943,2.943v17.28c0,1.623-1.32,2.942-2.943,2.942h-9.111v-0.717  l1.763-1.765c2.072-2.072,2.072-5.443,0-7.515l-3.726-3.726c-1.005-1.003-2.339-1.556-3.759-1.556c-1.419,0-2.754,0.553-3.758,1.557  l-3.727,3.726c-2.071,2.072-2.071,5.444,0,7.515l1.765,1.764v0.717h-43.28v-0.717l1.765-1.765c2.069-2.071,2.069-5.442-0.001-7.515  l-3.728-3.726c-1.003-1.004-2.338-1.557-3.757-1.557c-1.42,0-2.755,0.553-3.758,1.557l-3.727,3.726  c-1.004,1.004-1.558,2.338-1.558,3.758c0,1.419,0.554,2.754,1.558,3.757l1.764,1.764v0.717H7.965c-1.623,0-2.942-1.319-2.942-2.942  V32.187z M74.005,66.281h6.395v8.67c0,1.539-1.253,2.791-2.793,2.791h-0.81c-1.54,0-2.792-1.252-2.792-2.791V66.281z M70.762,63.759  v-2.748h12.879v2.748H70.762z M74.005,58.488v-3.557h6.395v3.557H74.005z M74.005,52.409V51.17c0-0.335-0.134-0.656-0.37-0.892  l-2.134-2.133c-1.089-1.089-1.089-2.86,0-3.949l3.727-3.726c0.527-0.527,1.228-0.818,1.974-0.818s1.448,0.291,1.976,0.818  l3.726,3.725c1.088,1.089,1.088,2.861,0,3.95l-2.133,2.133c-0.237,0.237-0.37,0.557-0.37,0.892v1.239H74.005z M19.281,66.281h6.397  v8.67c0,1.539-1.254,2.791-2.794,2.791h-0.811c-1.54,0-2.793-1.252-2.793-2.791V66.281z M16.039,63.759v-2.748H28.92v2.748H16.039z   M19.281,58.488v-3.557h6.397v3.557H19.281z M19.281,52.409V51.17c0-0.334-0.133-0.655-0.369-0.892l-2.133-2.133  c-0.527-0.527-0.818-1.229-0.818-1.974c0-0.746,0.291-1.447,0.818-1.975l3.727-3.726c0.527-0.527,1.229-0.818,1.975-0.818  c0.745,0,1.446,0.291,1.974,0.818l3.728,3.725c1.088,1.089,1.088,2.861,0,3.95l-2.134,2.133c-0.236,0.236-0.369,0.557-0.369,0.892  v1.239H19.281z M61.246,71.945c0,0.825-1.146,1.744-2.793,1.744c-0.188,0-0.373,0.042-0.542,0.123l-7.969,3.795l-7.971-3.795  c-0.169-0.081-0.354-0.123-0.542-0.123c-1.646,0-2.792-0.919-2.792-1.744v-2.704c0-0.825,1.146-1.744,2.792-1.744h17.023  c1.646,0,2.793,0.919,2.793,1.744V71.945z M57.905,86.053h-15.81c-1.54,0-2.792-1.253-2.792-2.794v-7.4  c0.564,0.192,1.176,0.32,1.828,0.348l8.269,3.937c0.172,0.082,0.357,0.123,0.542,0.123c0.186,0,0.371-0.041,0.543-0.123l8.267-3.937  c0.695-0.029,1.352-0.164,1.945-0.381v7.434C60.697,84.8,59.445,86.053,57.905,86.053z M93.326,82.449  c0,1.54-1.252,2.793-2.791,2.793H62.834c0.247-0.613,0.387-1.281,0.387-1.983v-9.435c0.34-0.566,0.548-1.197,0.548-1.879v-2.704  c0-2.393-2.335-4.267-5.315-4.267H41.43c-2.98,0-5.314,1.874-5.314,4.267v2.704c0,0.757,0.252,1.453,0.666,2.063v9.25  c0,0.702,0.14,1.37,0.388,1.983H9.466c-1.54,0-2.793-1.253-2.793-2.793V54.771c0.415,0.101,0.846,0.16,1.292,0.16h8.795v3.557  h-1.982c-0.696,0-1.261,0.564-1.261,1.262v5.271c0,0.696,0.564,1.261,1.261,1.261h1.982v8.67c0,2.93,2.384,5.314,5.314,5.314h0.811  c2.931,0,5.316-2.385,5.316-5.314v-8.67h1.979c0.696,0,1.262-0.564,1.262-1.261V59.75c0-0.697-0.565-1.262-1.262-1.262h-1.979  v-3.557h43.28v3.557H69.5c-0.696,0-1.261,0.564-1.261,1.262v5.271c0,0.696,0.564,1.261,1.261,1.261h1.981v8.67  c0,2.93,2.385,5.314,5.315,5.314h0.81c2.931,0,5.316-2.385,5.316-5.314v-8.67h1.979c0.697,0,1.262-0.564,1.262-1.261V59.75  c0-0.697-0.564-1.262-1.262-1.262h-1.979v-3.557h9.111c0.446,0,0.877-0.06,1.292-0.16V82.449z"/><text x="0" y="115" fill="#000000" font-size="5px" font-weight="bold" font-family="'Helvetica Neue', Helvetica, Arial-Unicode, Arial, Sans-serif">Created by Isabel Martínez Isabel</text><text x="0" y="120" fill="#000000" font-size="5px" font-weight="bold" font-family="'Helvetica Neue', Helvetica, Arial-Unicode, Arial, Sans-serif">from the Noun Project</text></svg>