<svg xmlns="http://www.w3.org/2000/svg" xmlns:xlink="http://www.w3.org/1999/xlink" version="1.1" x="0px" y="0px" viewBox="0 0 52 65" style="enable-background:new 0 0 52 52;" xml:space="preserve"><style type="text/css">
	.st0{fill:none;stroke:#000000;stroke-width:2;stroke-linecap:round;stroke-miterlimit:10;}
	.st1{fill:none;stroke:#000000;stroke-width:2;stroke-miterlimit:10;}
	.st2{fill:none;stroke:#000000;stroke-width:2;stroke-linejoin:round;stroke-miterlimit:10;}
</style><g><g><path d="M40.4033203,50H11.3154297c-2.6005859,0-4.7167969-2.1157227-4.7167969-4.7167969v-0.9013672    c0-6.2216797,5.0615234-11.2832031,11.2822266-11.2832031h15.9560547c6.2216797,0,11.2832031,5.0615234,11.2832031,11.2832031    v0.9013672C45.1201172,47.8842773,43.0039063,50,40.4033203,50z M17.8808594,35.0986328    c-5.1181641,0-9.2822266,4.1645508-9.2822266,9.2832031v0.9013672C8.5986328,46.78125,9.8173828,48,11.3154297,48h29.0878906    c1.4980469,0,2.7167969-1.21875,2.7167969-2.7167969v-0.9013672c0-5.1186523-4.1640625-9.2832031-9.2832031-9.2832031H17.8808594z    "/></g><g><path d="M26.0703125,44.8999023l-7.7792969-11.4018555h14.2675781L26.0703125,44.8999023z M22.0761719,35.4980469    l3.8398438,5.628418l3.203125-5.628418H22.0761719z"/></g><g><path d="M25.8632813,33.9946289c-6.3115234,0-11.4394531-6.59375-11.4394531-14.6987305v-4.3959961    c0-0.4003906,0.2392578-0.762207,0.6074219-0.9194336c0.3623047-0.1547852,0.7167969-0.2983398,1.0693359-0.4316406    c6.3730469-2.4814453,12.6601563-2.6015625,18.6796875-0.3515625c0.6425781,0.2299805,1.2988281,0.4995117,1.9355469,0.7963867    c0.3525391,0.1640625,0.578125,0.5175781,0.578125,0.90625v4.3959961    C37.2939453,27.4008789,32.1660156,33.9946289,25.8632813,33.9946289z M16.4238281,15.5688477v3.7270508    c0,7.0019531,4.2314453,12.6987305,9.4316406,12.6987305c5.2080078,0,9.4384766-5.6967773,9.4384766-12.6987305v-3.7480469    c-0.3964844-0.1704102-0.7988281-0.3286133-1.2011719-0.4726563c-5.5585938-2.0771484-11.3671875-1.9609375-17.2763672,0.3413086    C16.6845703,15.4663086,16.5537109,15.5170898,16.4238281,15.5688477z"/></g><g><path d="M16.8173828,15.4848633c-0.1181641,0-0.2363281-0.0209961-0.3496094-0.0629883L5.6503906,11.3876953    C5.2597656,11.2416992,5,10.8681641,5,10.4506836c0-0.4179688,0.2597656-0.7915039,0.6513672-0.9370117l20-7.4506836    c0.2246094-0.0839844,0.4726563-0.0839844,0.6972656,0l20,7.4506836C46.7402344,9.6591797,47,10.0332031,47,10.4506836    c0,0.4179688-0.2597656,0.7915039-0.6513672,0.9370117l-9.8955078,3.6831055    c-0.2177734,0.081543-0.4580078,0.0839844-0.6777344,0.0073242c-5.9794922-2.0849609-12.2460938-1.9677734-18.6162109,0.3466797    C17.0488281,15.4648438,16.9326172,15.4848633,16.8173828,15.4848633z M8.8632813,10.4511719l7.9619141,2.9692383    c6.5732422-2.3129883,13.0527344-2.4287109,19.2646484-0.3481445l7.0449219-2.6220703L26,4.0668945L8.8632813,10.4511719z"/></g><g><path d="M11.2177734,26.3574219c-0.5527344,0-1-0.4477539-1-1V13.328125c0-0.5522461,0.4472656-1,1-1s1,0.4477539,1,1v12.0292969    C12.2177734,25.909668,11.7705078,26.3574219,11.2177734,26.3574219z"/></g></g><text x="0" y="67" fill="#000000" font-size="5px" font-weight="bold" font-family="'Helvetica Neue', Helvetica, Arial-Unicode, Arial, Sans-serif">Created by Dinosoft Labs</text><text x="0" y="72" fill="#000000" font-size="5px" font-weight="bold" font-family="'Helvetica Neue', Helvetica, Arial-Unicode, Arial, Sans-serif">from the Noun Project</text></svg>